#Comment line ignore any data following # character 
#Hierarchical Translation and Rotation (.htr) file 
[Header]	
#Header keywords are followed by a single value 
FileType HTR		#Single word string
DataType HTRS		#Translation followed by rotation and scale data
FileVersion 1		#integer
NumSegments 84		#integer
NumFrames 2		#integer
DataFrameRate 30		#integer, data frame rate in this file
EulerRotationOrder ZYX
CalibrationUnits mm
RotationUnits Degrees
GlobalAxisofGravity Y
BoneLengthAxis Y
ScaleFactor 1.00
[SegmentNames&Hierarchy]
#CHILD	PARENT
MASTER GLOBAL
root MASTER
chest root
L_mid_tent01 root
R_mid_tent01 root
spine01 root
Bip01_Neck chest
L_humerus chest
R_humerus chest
weapon_bone chest
Bip01_Head Bip01_Neck
eye_left_bone Bip01_Head
eye_right_bone Bip01_Head
L_forearm L_humerus
L_front_hand L_forearm
L_weapon_bone L_forearm
L_front_hand01_01 L_front_hand
L_front_hand02_01 L_front_hand
L_front_hand03_01 L_front_hand
L_front_hand01_02 L_front_hand01_01
L_front_hand02_02 L_front_hand02_01
L_front_hand03_02 L_front_hand03_01
R_forearm R_humerus
R_front_hand R_forearm
R_weapon_bone R_forearm
R_front_hand01_01 R_front_hand
R_front_hand02_01 R_front_hand
R_front_hand03_01 R_front_hand
R_front_hand01_02 R_front_hand01_01
R_front_hand02_02 R_front_hand02_01
R_front_hand03_02 R_front_hand03_01
null_rope01_connect L_mid_tent01
Rope1_Seg01 null_rope01_connect
Rope1_Seg02 Rope1_Seg01
Rope1_Seg03 Rope1_Seg02
Rope1_Seg04 Rope1_Seg03
Rope1_Seg05 Rope1_Seg04
Rope1_Seg06 Rope1_Seg05
Rope1_Seg07 Rope1_Seg06
Rope1_Seg09 Rope1_Seg07
L_mid_hand01 Rope1_Seg09
L_mid_hand02 Rope1_Seg09
L_mid_hand03 Rope1_Seg09
null_rope02_connect R_mid_tent01
Rope2_Seg01 null_rope02_connect
Rope2_Seg02 Rope2_Seg01
Rope2_Seg03 Rope2_Seg02
Rope2_Seg04 Rope2_Seg03
Rope2_Seg05 Rope2_Seg04
Rope2_Seg06 Rope2_Seg05
Rope2_Seg07 Rope2_Seg06
Rope2_Seg09 Rope2_Seg07
R_mid_hand01 Rope2_Seg09
R_mid_hand02 Rope2_Seg09
R_mid_hand03 Rope2_Seg09
spine02 spine01
spine03 spine02
pelvis spine03
null_rope03_connect pelvis
null_rope04_connect pelvis
Rope3_Seg01 null_rope03_connect
Rope3_Seg02 Rope3_Seg01
Rope3_Seg03 Rope3_Seg02
Rope3_Seg04 Rope3_Seg03
Rope3_Seg05 Rope3_Seg04
Rope3_Seg06 Rope3_Seg05
Rope3_Seg07 Rope3_Seg06
Rope3_Seg08 Rope3_Seg07
Rope3_Seg09 Rope3_Seg08
R_rear_hand01 Rope3_Seg09
R_rear_hand02 Rope3_Seg09
R_rear_hand03 Rope3_Seg09
Rope4_Seg01 null_rope04_connect
Rope4_Seg02 Rope4_Seg01
Rope4_Seg03 Rope4_Seg02
Rope4_Seg04 Rope4_Seg03
Rope4_Seg05 Rope4_Seg04
Rope4_Seg06 Rope4_Seg05
Rope4_Seg07 Rope4_Seg06
Rope4_Seg08 Rope4_Seg07
Rope4_Seg09 Rope4_Seg08
L_rear_hand01 Rope4_Seg09
L_rear_hand02 Rope4_Seg09
L_rear_hand03 Rope4_Seg09
[BasePosition]
#SegmentName Tx, Ty, Tz, Rx, Ry, Rz, BoneLength
MASTER 0.000000 0.000000 0.000000 -90.000000 0.000000 0.000000 10.000000 
root 0.000000 0.000000 0.000000 0.000000 0.000000 0.000000 10.000000 
chest 0.000000 0.000000 0.000000 0.000000 0.000000 0.000000 10.000000 
L_mid_tent01 0.000000 0.000000 0.000000 0.000000 0.000000 0.000000 10.000000 
R_mid_tent01 0.000000 0.000000 0.000000 0.000000 0.000000 0.000000 10.000000 
spine01 0.000000 0.000000 0.000000 0.000000 0.000000 0.000000 10.000000 
Bip01_Neck 0.000000 0.000000 0.000000 0.000000 0.000000 0.000000 10.000000 
L_humerus 0.000000 0.000000 0.000000 0.000000 0.000000 0.000000 10.000000 
R_humerus 0.000000 0.000000 0.000000 0.000000 0.000000 0.000000 10.000000 
weapon_bone 0.000000 0.000000 0.000000 0.000000 0.000000 0.000000 10.000000 
Bip01_Head 0.000000 0.000000 0.000000 0.000000 0.000000 0.000000 10.000000 
eye_left_bone 0.000000 0.000000 0.000000 0.000000 0.000000 0.000000 10.000000 
eye_right_bone 0.000000 0.000000 0.000000 0.000000 0.000000 0.000000 10.000000 
L_forearm 0.000000 0.000000 0.000000 0.000000 0.000000 0.000000 10.000000 
L_front_hand 0.000000 0.000000 0.000000 0.000000 0.000000 0.000000 10.000000 
L_weapon_bone 0.000000 0.000000 0.000000 0.000000 0.000000 0.000000 10.000000 
L_front_hand01_01 0.000000 0.000000 0.000000 0.000000 0.000000 0.000000 10.000000 
L_front_hand02_01 0.000000 0.000000 0.000000 0.000000 0.000000 0.000000 10.000000 
L_front_hand03_01 0.000000 0.000000 0.000000 0.000000 0.000000 0.000000 10.000000 
L_front_hand01_02 0.000000 0.000000 0.000000 0.000000 0.000000 0.000000 10.000000 
L_front_hand02_02 0.000000 0.000000 0.000000 0.000000 0.000000 0.000000 10.000000 
L_front_hand03_02 0.000000 0.000000 0.000000 0.000000 0.000000 0.000000 10.000000 
R_forearm 0.000000 0.000000 0.000000 0.000000 0.000000 0.000000 10.000000 
R_front_hand 0.000000 0.000000 0.000000 0.000000 0.000000 0.000000 10.000000 
R_weapon_bone 0.000000 0.000000 0.000000 0.000000 0.000000 0.000000 10.000000 
R_front_hand01_01 0.000000 0.000000 0.000000 0.000000 0.000000 0.000000 10.000000 
R_front_hand02_01 0.000000 0.000000 0.000000 0.000000 0.000000 0.000000 10.000000 
R_front_hand03_01 0.000000 0.000000 0.000000 0.000000 0.000000 0.000000 10.000000 
R_front_hand01_02 0.000000 0.000000 0.000000 0.000000 0.000000 0.000000 10.000000 
R_front_hand02_02 0.000000 0.000000 0.000000 0.000000 0.000000 0.000000 10.000000 
R_front_hand03_02 0.000000 0.000000 0.000000 0.000000 0.000000 0.000000 10.000000 
null_rope01_connect 0.000000 0.000000 0.000000 0.000000 0.000000 0.000000 10.000000 
Rope1_Seg01 0.000000 0.000000 0.000000 0.000000 0.000000 0.000000 10.000000 
Rope1_Seg02 0.000000 0.000000 0.000000 0.000000 0.000000 0.000000 10.000000 
Rope1_Seg03 0.000000 0.000000 0.000000 0.000000 0.000000 0.000000 10.000000 
Rope1_Seg04 0.000000 0.000000 0.000000 0.000000 0.000000 0.000000 10.000000 
Rope1_Seg05 0.000000 0.000000 0.000000 0.000000 0.000000 0.000000 10.000000 
Rope1_Seg06 0.000000 0.000000 0.000000 0.000000 0.000000 0.000000 10.000000 
Rope1_Seg07 0.000000 0.000000 0.000000 0.000000 0.000000 0.000000 10.000000 
Rope1_Seg09 0.000000 0.000000 0.000000 0.000000 0.000000 0.000000 10.000000 
L_mid_hand01 0.000000 0.000000 0.000000 0.000000 0.000000 0.000000 10.000000 
L_mid_hand02 0.000000 0.000000 0.000000 0.000000 0.000000 0.000000 10.000000 
L_mid_hand03 0.000000 0.000000 0.000000 0.000000 0.000000 0.000000 10.000000 
null_rope02_connect 0.000000 0.000000 0.000000 0.000000 0.000000 0.000000 10.000000 
Rope2_Seg01 0.000000 0.000000 0.000000 0.000000 0.000000 0.000000 10.000000 
Rope2_Seg02 0.000000 0.000000 0.000000 0.000000 0.000000 0.000000 10.000000 
Rope2_Seg03 0.000000 0.000000 0.000000 0.000000 0.000000 0.000000 10.000000 
Rope2_Seg04 0.000000 0.000000 0.000000 0.000000 0.000000 0.000000 10.000000 
Rope2_Seg05 0.000000 0.000000 0.000000 0.000000 0.000000 0.000000 10.000000 
Rope2_Seg06 0.000000 0.000000 0.000000 0.000000 0.000000 0.000000 10.000000 
Rope2_Seg07 0.000000 0.000000 0.000000 0.000000 0.000000 0.000000 10.000000 
Rope2_Seg09 0.000000 0.000000 0.000000 0.000000 0.000000 0.000000 10.000000 
R_mid_hand01 0.000000 0.000000 0.000000 0.000000 0.000000 0.000000 10.000000 
R_mid_hand02 0.000000 0.000000 0.000000 0.000000 0.000000 0.000000 10.000000 
R_mid_hand03 0.000000 0.000000 0.000000 0.000000 0.000000 0.000000 10.000000 
spine02 0.000000 0.000000 0.000000 0.000000 0.000000 0.000000 10.000000 
spine03 0.000000 0.000000 0.000000 0.000000 0.000000 0.000000 10.000000 
pelvis 0.000000 0.000000 0.000000 0.000000 0.000000 0.000000 10.000000 
null_rope03_connect 0.000000 0.000000 0.000000 0.000000 0.000000 0.000000 10.000000 
null_rope04_connect 0.000000 0.000000 0.000000 0.000000 0.000000 0.000000 10.000000 
Rope3_Seg01 0.000000 0.000000 0.000000 0.000000 0.000000 0.000000 10.000000 
Rope3_Seg02 0.000000 0.000000 0.000000 0.000000 0.000000 0.000000 10.000000 
Rope3_Seg03 0.000000 0.000000 0.000000 0.000000 0.000000 0.000000 10.000000 
Rope3_Seg04 0.000000 0.000000 0.000000 0.000000 0.000000 0.000000 10.000000 
Rope3_Seg05 0.000000 0.000000 0.000000 0.000000 0.000000 0.000000 10.000000 
Rope3_Seg06 0.000000 0.000000 0.000000 0.000000 0.000000 0.000000 10.000000 
Rope3_Seg07 0.000000 0.000000 0.000000 0.000000 0.000000 0.000000 10.000000 
Rope3_Seg08 0.000000 0.000000 0.000000 0.000000 0.000000 0.000000 10.000000 
Rope3_Seg09 0.000000 0.000000 0.000000 0.000000 0.000000 0.000000 10.000000 
R_rear_hand01 0.000000 0.000000 0.000000 0.000000 0.000000 0.000000 10.000000 
R_rear_hand02 0.000000 0.000000 0.000000 0.000000 0.000000 0.000000 10.000000 
R_rear_hand03 0.000000 0.000000 0.000000 0.000000 0.000000 0.000000 10.000000 
Rope4_Seg01 0.000000 0.000000 0.000000 0.000000 0.000000 0.000000 10.000000 
Rope4_Seg02 0.000000 0.000000 0.000000 0.000000 0.000000 0.000000 10.000000 
Rope4_Seg03 0.000000 0.000000 0.000000 0.000000 0.000000 0.000000 10.000000 
Rope4_Seg04 0.000000 0.000000 0.000000 0.000000 0.000000 0.000000 10.000000 
Rope4_Seg05 0.000000 0.000000 0.000000 0.000000 0.000000 0.000000 10.000000 
Rope4_Seg06 0.000000 0.000000 0.000000 0.000000 0.000000 0.000000 10.000000 
Rope4_Seg07 0.000000 0.000000 0.000000 0.000000 0.000000 0.000000 10.000000 
Rope4_Seg08 0.000000 0.000000 0.000000 0.000000 0.000000 0.000000 10.000000 
Rope4_Seg09 0.000000 0.000000 0.000000 0.000000 0.000000 0.000000 10.000000 
L_rear_hand01 0.000000 0.000000 0.000000 0.000000 0.000000 0.000000 10.000000 
L_rear_hand02 0.000000 0.000000 0.000000 0.000000 0.000000 0.000000 10.000000 
L_rear_hand03 0.000000 0.000000 0.000000 0.000000 0.000000 0.000000 10.000000 
#Beginning of Data. Separated by tabs
#Fr	Tx	Ty	Tz	Rx	Ry	Rz	SF
[MASTER]
13 0.000000 0.000000 0.000000 0.001660 0.001660 0.001660 0.000000
14 0.000000 0.000000 0.000000 0.001660 0.001660 0.001660 0.000000
[root]
13 -37.389977 -52.876057 1502.577881 -94.977768 -51.260956 -91.089561 1503.972778
14 -37.005062 -53.551624 1502.543457 -98.391243 -51.674263 -87.483124 1503.952759
[chest]
13 -84.512650 -34.090519 0.000000 -3.248960 -13.006288 166.034714 91.129311
14 -84.512650 -34.090519 0.000000 -5.587780 -18.315449 167.003342 91.129311
[L_mid_tent01]
13 27.299154 22.179106 -249.918716 2.399206 -3.834266 79.124290 252.381699
14 27.299156 22.179106 -249.918716 2.220793 -3.744732 78.850655 252.381699
[R_mid_tent01]
13 23.228794 24.509907 226.238495 164.944839 -2.315211 75.040138 228.744751
14 23.228794 24.509907 226.238495 165.488434 -0.464769 73.287361 228.744751
[spine01]
13 -0.361383 -0.195265 0.000000 0.002062 0.001122 32.879829 0.410763
14 -0.361383 -0.195265 0.000000 0.002062 0.001122 32.879829 0.410763
[Bip01_Neck]
13 165.484543 71.581718 0.000119 176.643677 -1.657967 43.431911 180.302734
14 165.484543 71.581718 0.000119 176.643677 -1.657967 43.431911 180.302734
[L_humerus]
13 -13.983130 -135.272980 -120.471481 165.101486 0.444818 -63.231598 181.680161
14 -13.983130 -135.272980 -120.471481 166.411774 4.929234 -66.026321 181.680161
[R_humerus]
13 -13.983309 -135.273102 125.287651 -176.955414 -11.787678 -86.163353 184.909012
14 -13.983309 -135.273102 125.287651 -176.090775 -8.429159 -87.876686 184.909012
[weapon_bone]
13 235.964890 -300.705902 0.000000 0.000000 -89.951546 -128.212341 382.234833
14 235.964890 -300.705902 0.000000 0.000000 -89.951546 -128.212341 382.234833
[Bip01_Head]
13 213.500305 185.559158 13.793320 31.921705 0.260523 -43.901352 283.204590
14 213.451065 185.696411 12.022847 32.022289 0.134060 -43.899021 283.176727
[eye_left_bone]
13 -24.626970 125.451866 -64.772606 0.000000 -90.000000 -99.840431 143.318359
14 -24.626970 125.451866 -64.772606 0.000000 -90.000000 -99.840431 143.318359
[eye_right_bone]
13 -24.626970 125.451866 64.327362 0.000000 -89.972023 80.156380 143.117676
14 -24.626970 125.451866 64.327362 0.000000 -89.965736 80.156380 143.117676
[L_forearm]
13 322.776093 0.000000 -0.000119 0.000396 -0.002314 -109.419975 322.776093
14 322.776093 0.000000 -0.000119 0.000396 -0.002314 -109.419975 322.776093
[L_front_hand]
13 241.149185 -0.042021 -3.300071 -178.667953 -1.835447 -27.422350 241.171753
14 241.149185 -0.042021 -3.300071 -178.667953 -1.835447 -27.422350 241.171753
[L_weapon_bone]
13 156.183838 0.000000 0.000000 0.000014 0.000007 0.000001 156.183838
14 156.183838 0.000000 0.000000 0.000014 0.000007 0.000001 156.183838
[L_front_hand01_01]
13 86.095154 20.947098 -0.655860 -0.273295 -0.533469 64.985298 88.609184
14 86.095154 20.947098 -0.655860 -0.273650 -0.533287 65.061523 88.609184
[L_front_hand02_01]
13 86.935165 -11.437475 24.513514 140.772385 -54.262844 -45.183468 91.046425
14 86.935165 -11.437475 24.513514 140.858566 -54.305298 -45.287003 91.046425
[L_front_hand03_01]
13 86.637497 -14.123976 -20.424902 -141.183044 52.494118 -47.265888 90.126129
14 86.637497 -14.123976 -20.424902 -141.258987 52.537949 -47.363300 90.126129
[L_front_hand01_02]
13 71.020905 -0.000179 0.000030 0.000315 -0.002326 -105.414528 71.020905
14 71.020905 -0.000179 0.000030 0.000315 -0.002326 -105.409866 71.020905
[L_front_hand02_02]
13 71.020927 -0.000119 0.000060 0.000315 -0.002326 -105.414528 71.020927
14 71.020927 -0.000119 0.000060 0.000315 -0.002326 -105.409866 71.020927
[L_front_hand03_02]
13 71.020905 -0.000060 0.000060 0.000315 -0.002326 -105.414528 71.020905
14 71.020905 -0.000060 0.000060 0.000315 -0.002326 -105.409866 71.020905
[R_forearm]
13 322.776428 -0.000060 0.000030 0.202103 0.065158 -108.062805 322.776428
14 322.776428 -0.000060 0.000030 0.202103 0.065158 -108.062805 322.776428
[R_front_hand]
13 238.847015 -0.006795 2.210259 -2.635298 -10.645461 -26.312506 238.857239
14 238.847015 -0.006795 2.210259 -2.635298 -10.645461 -26.312506 238.857239
[R_weapon_bone]
13 155.664093 0.002503 -0.000030 0.003487 0.001180 -90.988930 155.664078
14 155.664093 0.002503 -0.000030 0.003487 0.001180 -90.988930 155.664078
[R_front_hand01_01]
13 87.624611 14.231146 22.918642 -139.406311 -53.422394 43.599289 91.683487
14 87.624611 14.231146 22.918642 -138.707092 -52.961746 42.720669 91.683487
[R_front_hand02_01]
13 89.356956 14.367283 -19.491137 140.210251 51.852013 46.267590 92.579636
14 89.356956 14.367283 -19.491137 139.537384 51.404167 45.405891 92.579636
[R_front_hand03_01]
13 87.286232 -22.307278 -0.143439 0.071981 -0.448622 -63.915920 90.091743
14 87.286232 -22.307278 -0.143439 0.065057 -0.451640 -63.223511 90.091743
[R_front_hand01_02]
13 71.020905 0.000060 0.000119 0.002323 -0.000334 106.381706 71.020905
14 71.020905 0.000060 0.000119 0.002323 -0.000334 106.381714 71.020905
[R_front_hand02_02]
13 71.020844 -0.000030 -0.000119 0.002323 -0.000334 106.381706 71.020836
14 71.020844 -0.000030 -0.000119 0.002323 -0.000334 106.381714 71.020836
[R_front_hand03_02]
13 71.020905 0.000000 0.000030 0.002323 -0.000334 106.381706 71.020905
14 71.020905 0.000000 0.000030 0.002323 -0.000334 106.381714 71.020905
[null_rope01_connect]
13 328.732483 0.000000 -0.000238 -73.527306 -87.177139 135.662201 328.732483
14 328.732483 0.000000 -0.000238 -130.802719 -87.683029 -166.312042 328.732483
[Rope1_Seg01]
13 -0.000020 -0.000040 0.000079 -15.396191 16.934887 -101.291473 0.000091
14 -0.000018 -0.000037 0.000073 15.143279 14.132653 -112.610352 0.000084
[Rope1_Seg02]
13 139.999863 -0.000179 0.000000 -1.291043 -1.338401 2.247678 139.999863
14 139.999863 -0.000179 0.000000 -18.554497 2.812034 3.788983 139.999863
[Rope1_Seg03]
13 139.999924 0.000060 -0.000060 -1.841967 -1.602166 3.040364 139.999924
14 139.999924 0.000060 -0.000060 -22.623644 3.625332 6.941951 139.999924
[Rope1_Seg04]
13 139.999924 -0.000060 -0.000119 -2.988817 -2.658661 5.491871 139.999924
14 139.999924 -0.000060 -0.000119 -13.373262 -2.497750 14.049461 139.999924
[Rope1_Seg05]
13 139.999832 0.000119 -0.000060 4.072648 -9.167994 4.919520 139.999832
14 139.999832 0.000119 -0.000060 9.154746 -12.178924 2.056919 139.999832
[Rope1_Seg06]
13 139.999954 0.000119 -0.000060 1.280694 -3.628861 2.118752 139.999954
14 139.999954 0.000119 -0.000060 1.531800 -4.551378 2.609096 139.999954
[Rope1_Seg07]
13 139.999985 0.000060 0.000000 0.484198 -1.898382 1.329199 139.999985
14 139.999985 0.000060 0.000000 0.710271 -2.635426 1.672338 139.999985
[Rope1_Seg09]
13 121.602913 0.000119 -0.000089 -89.793175 -1.359789 0.847147 121.602913
14 121.602913 0.000119 -0.000089 -89.793175 -1.359789 0.847147 121.602913
[L_mid_hand01]
13 103.859421 1.038730 8.195221 112.987694 -50.601231 -18.681452 104.187431
14 103.859421 1.038730 8.195221 115.405022 -54.702587 -21.718943 104.187431
[L_mid_hand02]
13 105.572853 -4.139662 -10.864139 -153.018723 36.866016 -49.082405 106.211075
14 105.572853 -4.139662 -10.864139 -156.173538 38.796780 -54.226360 106.211075
[L_mid_hand03]
13 104.641464 17.579376 -3.913581 -11.755014 14.733717 54.618217 106.179977
14 104.641464 17.579376 -3.913581 -10.557026 15.605444 59.191402 106.179977
[null_rope02_connect]
13 328.732849 0.000179 -0.000119 -11.735393 73.730682 102.555534 328.732849
14 328.732849 0.000179 -0.000119 -5.556793 71.410515 106.622658 328.732849
[Rope2_Seg01]
13 -0.000034 0.000102 0.000000 106.483490 18.813215 -88.188683 0.000107
14 -0.000043 0.000101 0.000000 116.046127 24.374599 -79.540543 0.000109
[Rope2_Seg02]
13 139.999741 -0.000060 -0.000119 0.157876 -9.221715 3.601681 139.999756
14 139.999741 -0.000060 -0.000119 -1.343789 -9.112437 5.101813 139.999756
[Rope2_Seg03]
13 140.000107 0.000030 0.000000 0.047638 -13.056908 4.776446 140.000107
14 140.000107 0.000030 0.000000 -1.335104 -16.698530 8.037173 140.000107
[Rope2_Seg04]
13 139.999802 0.000000 -0.000060 -0.058688 -26.133488 5.139867 139.999802
14 139.999802 0.000000 -0.000060 -2.738976 -31.250206 11.772464 139.999802
[Rope2_Seg05]
13 139.999985 -0.000060 0.000119 0.467275 4.092804 6.366069 139.999985
14 139.999985 -0.000060 0.000119 1.297284 17.536848 8.255630 139.999985
[Rope2_Seg06]
13 139.999893 -0.000030 -0.000119 -1.856275 31.347004 8.269112 139.999893
14 139.999893 -0.000030 -0.000119 -4.212216 27.773193 5.570338 139.999893
[Rope2_Seg07]
13 139.999893 0.000060 -0.000060 -5.037171 12.695104 5.231300 139.999893
14 139.999893 0.000060 -0.000060 -4.420340 8.980080 3.880195 139.999893
[Rope2_Seg09]
13 121.338966 0.000089 -0.000060 33.793236 -1.359788 -0.847141 121.338966
14 121.338966 0.000089 -0.000060 33.793236 -1.359788 -0.847141 121.338966
[R_mid_hand01]
13 104.680779 11.144459 -10.335981 -37.204079 31.906813 37.576260 105.778534
14 104.680779 11.144459 -10.335981 -36.578453 32.644390 38.740570 105.778534
[R_mid_hand02]
13 104.070427 2.443552 8.231699 70.367462 -42.427391 14.067809 104.424065
14 104.070427 2.443552 8.231699 69.973366 -43.581707 14.639650 104.424065
[R_mid_hand03]
13 106.028137 -11.221827 -5.996406 -169.893616 12.226661 -47.211018 106.788818
14 106.028137 -11.221827 -5.996406 -170.161224 12.441347 -48.449886 106.788818
[spine02]
13 129.756927 0.001550 0.000119 0.360061 -4.044797 -12.915058 129.756927
14 129.756927 0.001550 0.000119 0.360061 -4.044797 -12.915058 129.756927
[spine03]
13 78.614067 0.081635 -4.899011 1.896495 3.831288 16.473045 78.766602
14 78.614067 0.081635 -4.899011 1.896495 3.831288 16.473045 78.766602
[pelvis]
13 169.435242 0.051022 0.000000 -0.060465 -0.180225 14.087930 169.435257
14 169.435242 0.051022 0.000000 -0.060465 -0.180225 14.087930 169.435257
[null_rope03_connect]
13 -1.257226 -2.466202 137.391083 -116.252884 -85.128624 -153.005646 137.418976
14 -1.257226 -2.466202 137.391083 -140.775574 -84.520248 -127.945511 137.418976
[null_rope04_connect]
13 -1.259640 -2.480268 -137.844437 -116.252884 -85.128624 -153.005646 137.872513
14 -1.259640 -2.480268 -137.844437 -140.775574 -84.520248 -127.945511 137.872513
[Rope3_Seg01]
13 0.000010 0.000038 -0.000114 -131.435333 7.200320 -84.502380 0.000121
14 0.000010 0.000038 -0.000114 -131.218491 5.402422 -85.215935 0.000121
[Rope3_Seg02]
13 139.999924 -0.000119 0.000060 1.324759 8.743515 10.758464 139.999924
14 139.999924 -0.000119 0.000060 1.578760 9.247315 9.384188 139.999924
[Rope3_Seg03]
13 139.999924 -0.000119 0.000119 1.339548 7.181906 8.632420 139.999924
14 139.999924 -0.000119 0.000119 2.083524 8.352750 8.006167 139.999924
[Rope3_Seg04]
13 139.999924 0.000119 0.000000 2.908571 9.684905 11.257556 139.999924
14 139.999924 0.000119 0.000000 4.501591 10.681464 9.145392 139.999924
[Rope3_Seg05]
13 139.999924 -0.000238 0.000060 1.091650 2.910848 3.161561 139.999924
14 139.999924 -0.000238 0.000060 -0.051827 0.175031 0.600011 139.999924
[Rope3_Seg06]
13 139.999893 -0.000119 -0.000060 -0.669314 -3.736905 -3.713210 139.999893
14 139.999893 -0.000119 -0.000060 -3.182037 -10.902116 -6.900956 139.999893
[Rope3_Seg07]
13 139.999771 0.000060 -0.000119 -0.287077 -12.595278 -13.346894 139.999771
14 139.999771 0.000060 -0.000119 -0.529975 -17.814758 -13.624626 139.999771
[Rope3_Seg08]
13 139.999985 -0.000060 0.000000 0.623399 -9.288253 -10.324259 139.999985
14 139.999985 -0.000060 0.000000 0.624487 -9.057040 -7.226449 139.999985
[Rope3_Seg09]
13 90.185997 -0.000179 -0.000060 89.793228 -1.359877 -0.847183 90.185997
14 90.185997 -0.000179 -0.000060 89.793228 -1.359877 -0.847183 90.185997
[R_rear_hand01]
13 103.366196 -6.073594 -10.757982 -165.129318 19.906286 -41.459824 104.101845
14 103.366196 -6.073594 -10.757982 -166.165070 20.624767 -44.436901 104.101845
[R_rear_hand02]
13 100.509819 12.039542 -7.992327 -30.361929 25.330687 39.162518 101.543350
14 100.509819 12.039542 -7.992327 -29.134808 26.762827 41.953499 101.543350
[R_rear_hand03]
13 101.539970 5.215704 5.435467 82.326164 -42.112476 9.027004 101.819031
14 101.539970 5.215704 5.435467 81.948593 -44.972103 9.574173 101.819031
[Rope4_Seg01]
13 0.000010 0.000020 -0.000079 43.559902 6.654406 -131.671036 0.000082
14 0.000010 0.000018 -0.000073 44.804260 3.543059 -132.486923 0.000076
[Rope4_Seg02]
13 139.999985 0.000060 0.000119 4.898629 17.630215 18.130260 139.999985
14 139.999985 0.000060 0.000119 4.316461 17.237490 15.777086 139.999985
[Rope4_Seg03]
13 139.999924 0.000000 -0.000238 1.038521 14.810796 14.015835 139.999924
14 139.999924 0.000000 -0.000238 1.644190 16.610750 14.454186 139.999924
[Rope4_Seg04]
13 139.999985 0.000000 0.000119 -1.520939 12.363782 12.178986 139.999985
14 139.999985 0.000000 0.000119 -1.393550 14.664777 14.076533 139.999985
[Rope4_Seg05]
13 139.999802 -0.000060 -0.000119 -0.700099 2.415640 2.386311 139.999802
14 139.999802 -0.000060 -0.000119 -0.509852 3.198585 2.416908 139.999802
[Rope4_Seg06]
13 139.999924 0.000000 0.000060 1.523868 -2.743982 -3.419447 139.999924
14 139.999924 0.000000 0.000060 2.819995 -2.889100 -5.302116 139.999924
[Rope4_Seg07]
13 139.999802 0.000000 0.000000 3.795738 -9.549151 -10.947203 139.999802
14 139.999802 0.000000 0.000000 5.295601 -9.819664 -13.931165 139.999802
[Rope4_Seg08]
13 139.999924 0.000000 0.000119 0.005546 -7.259122 -7.566469 139.999924
14 139.999924 0.000000 0.000119 0.162897 -6.087802 -7.967398 139.999924
[Rope4_Seg09]
13 90.185791 0.000060 0.000060 -135.617828 2.228885 0.850567 90.185791
14 90.185791 0.000060 0.000060 -135.617828 2.228885 0.850567 90.185791
[L_rear_hand01]
13 101.696655 -8.392275 -7.654577 -23.837069 -31.497849 127.196877 102.329041
14 101.696655 -8.392275 -7.654577 -21.399752 -33.105400 122.636459 102.329041
[L_rear_hand02]
13 102.726799 -1.568258 5.773216 79.940971 55.428265 167.825546 102.900848
14 102.726799 -1.568258 5.773216 78.723900 59.531788 166.383713 102.900848
[L_rear_hand03]
13 104.552910 9.721220 -10.420293 -170.300171 -22.788525 -124.407036 105.519653
14 104.552910 9.721220 -10.420293 -172.062332 -23.429153 -119.922249 105.519653
